<svg xmlns="http://www.w3.org/2000/svg" width="22.036" height="20.658" viewBox="0 0 22.036 20.658">
  <path id="briefcase-solid" d="M13.772,14.461a.688.688,0,0,1-.689.689H8.952a.691.691,0,0,1-.689-.689V12.4H0v6.2a2.118,2.118,0,0,0,2.066,2.066h17.9a2.119,2.119,0,0,0,2.066-2.066V12.4H13.772Zm6.2-10.329H16.527V2.066A2.118,2.118,0,0,0,14.461,0H7.575A2.118,2.118,0,0,0,5.509,2.066V4.132H2.066A2.118,2.118,0,0,0,0,6.2v4.82H22.036V6.2A2.118,2.118,0,0,0,19.97,4.132Zm-5.509,0H7.575V2.066h6.886Z" fill="#707070"/>
</svg>
