<svg xmlns="http://www.w3.org/2000/svg" width="19.48" height="23.109" viewBox="0 0 19.48 23.109">
  <path id="summarize_FILL1_wght400_GRAD0_opsz48" d="M11.113,13.029a.726.726,0,0,0,.568-.289,1.055,1.055,0,0,0,0-1.348.7.7,0,0,0-1.136,0,1.055,1.055,0,0,0,0,1.348A.726.726,0,0,0,11.113,13.029Zm0,5.488a.726.726,0,0,0,.568-.289,1.055,1.055,0,0,0,0-1.348.7.7,0,0,0-1.136,0,1.055,1.055,0,0,0,0,1.348A.726.726,0,0,0,11.113,18.517Zm0,5.488a.726.726,0,0,0,.568-.289,1.055,1.055,0,0,0,0-1.348.7.7,0,0,0-1.136,0,1.055,1.055,0,0,0,0,1.348A.726.726,0,0,0,11.113,24.006Zm-3.49,5.1a1.451,1.451,0,0,1-1.136-.578A2.028,2.028,0,0,1,6,27.183V7.926a2.028,2.028,0,0,1,.487-1.348A1.451,1.451,0,0,1,7.623,6H19.447a1.372,1.372,0,0,1,.636.16,1.7,1.7,0,0,1,.528.417l4.383,5.2a2.061,2.061,0,0,1,.352.626,2.176,2.176,0,0,1,.135.754V27.183a2.028,2.028,0,0,1-.487,1.348,1.451,1.451,0,0,1-1.136.578ZM20.042,13.414h3.815L19.23,7.926v4.525a1.034,1.034,0,0,0,.23.69A.728.728,0,0,0,20.042,13.414Z" transform="translate(-6 -6)" fill="#707070"/>
</svg>
