<svg xmlns="http://www.w3.org/2000/svg" width="90" height="90" viewBox="0 0 90 90">
  <g id="Group_5" data-name="Group 5" transform="translate(-598 -1318)" opacity="0.5">
    <circle id="Ellipse_43" data-name="Ellipse 43" cx="45" cy="45" r="45" transform="translate(598 1318)" fill="#3f3f3f" opacity="0.15"/>
    <g id="file-list-3-line" transform="translate(624 1344)">
      <path id="Path_8" data-name="Path 8" d="M0,0H38V38H0Z" fill="none"/>
      <path id="Path_9" data-name="Path 9" d="M30.689,35.752H7.063A5.063,5.063,0,0,1,2,30.689v-27A1.688,1.688,0,0,1,3.688,2H27.314A1.688,1.688,0,0,1,29,3.688V23.939h6.75v6.75A5.063,5.063,0,0,1,30.689,35.752ZM29,27.314v3.375a1.688,1.688,0,1,0,3.375,0V27.314Zm-3.375,5.063v-27H5.375V30.689a1.688,1.688,0,0,0,1.688,1.688ZM8.75,10.438h13.5v3.375H8.75Zm0,6.75h13.5v3.375H8.75Zm0,6.75h8.438v3.375H8.75Z" transform="translate(0.124 0.124)" fill="#3f3f3f"/>
    </g>
  </g>
</svg>
