<svg xmlns="http://www.w3.org/2000/svg" width="20.754" height="21.106" viewBox="0 0 20.754 21.106">
  <path id="logout_FILL1_wght400_GRAD0_opsz48" d="M21.39,21.038a.877.877,0,0,1-.264-.645.784.784,0,0,1,.264-.616l2.345-2.345H14.355a.88.88,0,1,1,0-1.759h9.322L21.3,13.3a.814.814,0,0,1-.235-.6.891.891,0,0,1,1.524-.63l3.9,3.9a.893.893,0,0,1,.205.293.916.916,0,0,1,0,.645.893.893,0,0,1-.205.293l-3.869,3.869a.814.814,0,0,1-.6.235A.86.86,0,0,1,21.39,21.038ZM7.759,27.106A1.8,1.8,0,0,1,6,25.347V7.759A1.8,1.8,0,0,1,7.759,6H15.41a.88.88,0,1,1,0,1.759H7.759V25.347H15.41a.88.88,0,1,1,0,1.759Z" transform="translate(-6 -6)" fill="#707070"/>
</svg>
